<?xml version="1.0" encoding="UTF-8"?>
<!-- Generator: visioncortex VTracer -->
<svg id="svg" version="1.1" xmlns="http://www.w3.org/2000/svg" style="display: block;" viewBox="0 0 3392 1248"><path d="M0,0 L8,0 L17,2 L17,4 L22,5 L31,12 L42,9 L48,8 L60,10 L65,11 L66,13 L73,16 L78,21 L79,24 L81,24 L84,29 L87,34 L88,38 L93,52 L95,57 L97,67 L99,82 L99,97 L97,105 L95,117 L93,124 L94,127 L104,130 L114,134 L123,138 L133,144 L140,149 L140,151 L143,152 L143,154 L145,154 L145,157 L147,157 L152,166 L154,172 L155,183 L153,193 L149,202 L148,204 L150,204 L155,214 L158,225 L158,236 L155,244 L154,248 L150,252 L148,255 L146,255 L146,257 L144,257 L143,260 L141,260 L139,264 L136,265 L132,269 L121,275 L114,279 L102,284 L93,285 L93,287 L80,289 L73,291 L61,291 L54,292 L53,306 L51,317 L50,323 L48,323 L47,328 L48,330 L66,332 L83,333 L86,334 L95,334 L107,335 L127,337 L139,338 L149,342 L160,346 L165,348 L165,350 L168,350 L168,352 L172,353 L177,357 L182,362 L188,367 L192,373 L192,376 L194,376 L196,382 L200,381 L202,376 L203,373 L205,373 L205,371 L207,371 L208,367 L211,364 L214,364 L216,360 L223,356 L233,351 L239,348 L258,343 L271,342 L348,342 L352,343 L385,343 L385,345 L390,344 L395,346 L405,349 L417,354 L426,360 L431,364 L440,361 L442,361 L442,359 L452,356 L459,352 L468,350 L486,345 L503,342 L510,340 L517,338 L529,336 L534,335 L556,332 L573,330 L580,330 L596,328 L619,328 L632,329 L639,329 L648,330 L660,331 L667,332 L683,335 L693,338 L703,341 L708,342 L714,344 L724,341 L733,338 L749,334 L762,332 L788,329 L807,328 L823,328 L827,329 L830,328 L837,329 L846,329 L854,331 L868,332 L881,334 L885,335 L903,339 L904,341 L907,340 L907,342 L919,344 L922,345 L922,347 L931,348 L943,353 L943,355 L950,356 L950,358 L956,359 L962,363 L970,367 L984,377 L991,381 L991,383 L996,385 L1003,392 L1008,395 L1013,400 L1022,409 L1022,411 L1025,412 L1025,414 L1028,415 L1029,416 L1034,406 L1033,400 L1031,400 L1027,394 L1021,382 L1017,375 L1010,354 L1010,348 L1008,347 L1005,335 L1004,319 L1004,290 L1005,286 L1007,270 L1012,254 L1015,248 L1016,244 L1019,237 L1022,230 L1030,216 L1038,205 L1040,201 L1042,201 L1042,199 L1044,199 L1046,195 L1050,192 L1053,187 L1061,180 L1063,177 L1066,176 L1069,173 L1071,173 L1072,170 L1075,170 L1075,168 L1081,167 L1082,164 L1088,162 L1089,160 L1100,155 L1109,151 L1116,150 L1116,148 L1128,145 L1141,142 L1163,140 L1184,140 L1195,142 L1203,143 L1213,145 L1222,148 L1226,149 L1226,151 L1231,152 L1244,157 L1245,159 L1250,161 L1259,166 L1275,178 L1276,181 L1280,183 L1285,188 L1291,193 L1292,197 L1294,197 L1295,201 L1297,201 L1305,212 L1307,217 L1309,219 L1313,226 L1319,237 L1323,246 L1326,254 L1330,267 L1332,280 L1333,285 L1334,295 L1335,300 L1335,307 L1335,311 L1334,325 L1333,334 L1329,350 L1324,368 L1320,376 L1314,390 L1312,390 L1312,392 L1310,392 L1308,399 L1306,402 L1304,402 L1304,409 L1308,416 L1312,428 L1312,435 L1313,441 L1313,475 L1312,490 L1312,500 L1311,507 L1311,527 L1310,535 L1310,538 L1310,570 L1309,577 L1309,592 L1308,595 L1308,617 L1307,618 L1307,652 L1306,677 L1306,687 L1305,706 L1305,721 L1304,729 L1305,731 L1304,758 L1303,765 L1304,767 L1303,777 L1303,791 L1302,795 L1301,811 L1297,824 L1293,832 L1289,840 L1287,841 L1286,844 L1282,850 L1277,855 L1275,855 L1273,859 L1267,863 L1266,865 L1256,870 L1248,874 L1241,876 L1232,878 L1222,879 L1214,880 L1210,879 L1207,879 L1202,880 L1197,879 L1175,879 L1170,878 L1163,879 L1156,878 L1156,879 L1144,879 L1141,879 L1137,879 L1132,878 L1127,879 L1124,878 L1118,879 L1118,877 L1112,878 L1091,878 L1088,878 L1075,874 L1066,871 L1060,867 L1054,864 L1054,862 L1050,861 L1041,853 L1041,851 L1038,850 L1034,845 L1034,842 L1028,847 L1026,847 L1025,850 L1020,852 L1019,854 L1016,855 L1016,857 L1008,861 L1006,863 L1003,863 L1003,865 L992,871 L982,874 L970,879 L961,880 L959,881 L942,881 L932,879 L927,879 L924,878 L924,876 L918,876 L912,873 L902,869 L896,866 L896,864 L892,863 L889,862 L887,859 L880,856 L880,854 L874,852 L864,844 L862,843 L862,840 L858,838 L853,834 L853,832 L850,835 L848,835 L846,840 L836,849 L827,855 L825,855 L824,857 L815,860 L806,864 L793,866 L786,867 L783,868 L778,867 L743,867 L740,866 L737,867 L734,866 L712,866 L709,866 L699,866 L690,865 L687,866 L685,865 L676,865 L669,864 L660,864 L646,861 L637,857 L630,854 L623,855 L613,860 L609,861 L601,864 L587,866 L584,867 L578,867 L572,866 L529,866 L514,865 L498,865 L487,864 L466,864 L458,863 L441,860 L435,858 L428,855 L418,850 L408,842 L403,837 L398,830 L398,828 L396,828 L389,815 L388,811 L384,813 L384,815 L382,815 L382,817 L380,817 L379,820 L374,823 L369,828 L358,836 L348,844 L341,848 L334,853 L322,859 L316,863 L309,864 L309,866 L302,869 L298,869 L298,871 L292,872 L285,875 L279,875 L279,877 L275,878 L267,879 L258,882 L247,884 L234,886 L229,887 L213,888 L211,887 L210,889 L168,889 L147,887 L129,885 L126,884 L108,880 L96,877 L80,872 L72,869 L65,866 L65,864 L60,864 L54,860 L49,858 L40,853 L39,851 L33,849 L18,839 L4,828 L-3,821 L-8,817 L-8,815 L-10,815 L-17,807 L-21,804 L-24,808 L-26,808 L-26,810 L-34,816 L-36,816 L-37,819 L-40,819 L-40,821 L-46,826 L-51,829 L-56,831 L-56,833 L-62,837 L-64,837 L-65,839 L-76,846 L-78,846 L-79,849 L-90,856 L-95,860 L-101,863 L-103,863 L-103,865 L-107,868 L-109,868 L-110,870 L-119,876 L-123,879 L-126,879 L-126,881 L-132,882 L-132,884 L-135,886 L-139,887 L-148,891 L-158,894 L-171,896 L-172,895 L-176,897 L-187,896 L-193,895 L-200,894 L-209,891 L-219,887 L-229,881 L-230,878 L-235,876 L-240,872 L-247,864 L-257,852 L-261,847 L-267,836 L-268,832 L-271,831 L-273,828 L-275,830 L-277,833 L-285,846 L-290,851 L-295,857 L-306,866 L-312,868 L-313,870 L-315,869 L-315,871 L-329,876 L-336,878 L-345,880 L-352,879 L-354,878 L-355,880 L-360,879 L-366,880 L-372,879 L-376,880 L-377,879 L-397,879 L-401,879 L-415,879 L-422,878 L-450,878 L-450,876 L-455,878 L-463,877 L-482,877 L-486,875 L-492,874 L-492,872 L-496,873 L-498,871 L-512,866 L-515,864 L-515,862 L-521,860 L-522,857 L-526,855 L-530,852 L-530,850 L-532,850 L-535,847 L-535,844 L-537,844 L-540,839 L-541,835 L-543,835 L-549,822 L-551,817 L-553,812 L-558,817 L-561,818 L-562,821 L-569,827 L-576,832 L-580,836 L-585,840 L-591,842 L-591,844 L-593,844 L-593,846 L-600,850 L-615,858 L-618,858 L-618,860 L-626,862 L-626,864 L-633,865 L-634,867 L-650,873 L-666,878 L-671,879 L-674,878 L-675,880 L-684,882 L-689,883 L-696,885 L-708,886 L-717,887 L-729,888 L-740,889 L-770,889 L-792,887 L-796,886 L-802,886 L-805,885 L-820,883 L-824,882 L-834,879 L-840,877 L-842,876 L-848,875 L-863,870 L-876,864 L-883,861 L-884,859 L-895,856 L-895,854 L-900,852 L-908,847 L-918,840 L-924,836 L-930,832 L-930,830 L-934,828 L-946,819 L-949,815 L-949,813 L-953,811 L-957,806 L-962,801 L-963,798 L-965,798 L-966,795 L-968,794 L-968,792 L-972,796 L-973,798 L-975,798 L-975,800 L-977,800 L-979,805 L-981,805 L-983,810 L-987,814 L-993,821 L-999,825 L-1004,829 L-1010,836 L-1016,840 L-1020,843 L-1022,843 L-1022,845 L-1027,848 L-1035,854 L-1044,859 L-1046,859 L-1046,861 L-1056,865 L-1072,873 L-1081,875 L-1081,877 L-1087,879 L-1092,882 L-1111,887 L-1121,890 L-1125,890 L-1127,892 L-1130,892 L-1143,894 L-1151,895 L-1157,897 L-1178,899 L-1181,898 L-1181,900 L-1189,899 L-1193,900 L-1200,900 L-1203,901 L-1203,899 L-1205,899 L-1205,901 L-1216,901 L-1224,900 L-1227,900 L-1236,899 L-1246,898 L-1246,896 L-1251,896 L-1255,894 L-1261,892 L-1265,890 L-1268,889 L-1274,887 L-1274,885 L-1279,883 L-1285,879 L-1289,874 L-1289,872 L-1292,873 L-1296,866 L-1300,860 L-1300,857 L-1302,857 L-1302,855 L-1304,855 L-1306,846 L-1308,845 L-1307,843 L-1309,843 L-1312,832 L-1317,819 L-1319,811 L-1321,807 L-1325,794 L-1326,793 L-1326,787 L-1328,787 L-1329,780 L-1332,772 L-1335,763 L-1338,756 L-1340,746 L-1341,742 L-1342,735 L-1342,724 L-1341,719 L-1341,713 L-1339,707 L-1336,697 L-1329,684 L-1327,680 L-1325,680 L-1324,676 L-1322,675 L-1321,672 L-1313,665 L-1309,662 L-1305,661 L-1304,658 L-1297,655 L-1295,653 L-1294,654 L-1293,652 L-1287,650 L-1283,649 L-1280,649 L-1280,646 L-1283,645 L-1287,639 L-1287,637 L-1291,635 L-1295,630 L-1297,626 L-1301,619 L-1304,617 L-1304,613 L-1306,613 L-1309,608 L-1311,603 L-1313,601 L-1314,595 L-1316,595 L-1317,590 L-1319,590 L-1320,586 L-1319,584 L-1321,584 L-1324,575 L-1328,566 L-1327,564 L-1329,563 L-1329,558 L-1331,551 L-1334,540 L-1336,531 L-1334,527 L-1336,527 L-1336,498 L-1335,497 L-1335,487 L-1334,485 L-1332,485 L-1333,479 L-1329,462 L-1326,455 L-1323,446 L-1319,437 L-1318,434 L-1316,434 L-1315,429 L-1313,424 L-1311,424 L-1311,419 L-1306,414 L-1300,405 L-1294,398 L-1292,394 L-1287,391 L-1284,387 L-1279,382 L-1276,378 L-1274,378 L-1274,376 L-1270,376 L-1268,371 L-1262,366 L-1259,366 L-1259,364 L-1255,361 L-1249,356 L-1246,355 L-1244,353 L-1239,349 L-1233,347 L-1230,344 L-1226,344 L-1225,342 L-1221,342 L-1221,340 L-1218,340 L-1218,338 L-1210,335 L-1203,332 L-1200,332 L-1199,330 L-1193,328 L-1191,329 L-1191,327 L-1187,325 L-1182,324 L-1170,320 L-1162,318 L-1157,318 L-1156,316 L-1144,315 L-1137,314 L-1136,313 L-1129,313 L-1128,312 L-1118,311 L-1114,310 L-1097,309 L-1088,308 L-1083,309 L-1082,307 L-1082,309 L-1069,308 L-1050,310 L-1040,312 L-1030,314 L-1019,318 L-1007,323 L-1007,325 L-1003,326 L-993,333 L-993,335 L-989,337 L-981,346 L-981,348 L-977,348 L-974,345 L-964,338 L-956,335 L-947,331 L-935,329 L-930,328 L-916,328 L-909,329 L-882,331 L-871,332 L-849,334 L-841,334 L-839,335 L-828,335 L-814,336 L-801,338 L-795,340 L-785,343 L-771,350 L-766,353 L-766,355 L-761,357 L-753,365 L-748,372 L-745,377 L-745,379 L-743,379 L-742,383 L-739,380 L-731,369 L-726,364 L-724,364 L-722,360 L-712,354 L-702,349 L-684,344 L-673,342 L-582,342 L-579,342 L-557,343 L-550,345 L-543,346 L-540,347 L-539,333 L-539,315 L-539,312 L-538,308 L-538,285 L-537,270 L-537,262 L-536,257 L-536,224 L-535,217 L-534,205 L-532,195 L-531,188 L-530,186 L-528,186 L-527,180 L-523,172 L-517,163 L-515,159 L-509,154 L-507,154 L-505,149 L-500,146 L-495,141 L-489,138 L-481,134 L-472,131 L-456,127 L-440,126 L-419,126 L-415,127 L-367,127 L-360,128 L-339,128 L-321,131 L-314,133 L-306,136 L-296,140 L-293,143 L-287,146 L-284,149 L-284,151 L-280,153 L-276,158 L-271,163 L-262,175 L-255,189 L-252,201 L-250,215 L-249,231 L-250,233 L-250,256 L-251,270 L-251,299 L-252,314 L-252,329 L-253,341 L-253,355 L-248,353 L-245,352 L-244,350 L-237,344 L-231,339 L-229,339 L-229,337 L-223,335 L-223,333 L-219,331 L-218,329 L-207,323 L-195,318 L-184,315 L-172,314 L-165,313 L-150,314 L-138,317 L-130,320 L-121,325 L-116,329 L-112,331 L-107,336 L-101,340 L-107,328 L-108,325 L-108,322 L-110,321 L-114,311 L-115,302 L-123,304 L-136,307 L-148,309 L-158,309 L-160,310 L-167,309 L-181,306 L-189,303 L-189,301 L-193,300 L-196,298 L-196,296 L-200,294 L-200,292 L-203,291 L-207,283 L-210,274 L-211,267 L-215,265 L-215,263 L-220,261 L-224,258 L-224,256 L-227,255 L-232,247 L-235,241 L-237,228 L-235,213 L-232,208 L-230,202 L-227,199 L-225,193 L-223,193 L-221,187 L-213,175 L-211,175 L-210,171 L-206,170 L-204,165 L-199,160 L-194,157 L-191,156 L-190,154 L-187,153 L-183,149 L-180,146 L-177,144 L-177,142 L-179,142 L-184,131 L-190,117 L-192,108 L-194,101 L-195,90 L-194,77 L-192,71 L-190,66 L-187,60 L-180,52 L-175,49 L-164,44 L-161,44 L-159,34 L-153,24 L-152,22 L-150,22 L-150,20 L-148,20 L-148,18 L-141,14 L-137,11 L-132,9 L-113,8 L-101,11 L-92,13 L-84,16 L-75,19 L-58,29 L-56,30 L-56,32 L-52,33 L-52,35 L-46,35 L-46,32 L-41,27 L-36,20 L-28,13 L-26,13 L-26,11 L-16,4 L-8,1 Z M-199,161 Z M-538,316 Z M800,329 Z M-101,340 Z M-71,373 L-71,377 L-68,377 L-66,381 L-64,383 L-62,383 L-61,379 L-66,377 L-68,373 Z M-1324,450 Z M-1332,479 Z M1308,568 Z M-88,575 L-93,579 L-96,581 L-96,583 L-98,583 L-99,586 L-94,593 L-92,595 L-89,600 L-85,600 L-86,592 L-86,576 Z M-1308,607 Z M-1280,649 Z M845,838 Z M-622,859 Z M706,864 Z M-638,866 Z M-437,876 Z M-386,877 Z M1153,877 Z M-349,878 Z M-347,878 Z M942,879 Z M-136,884 Z M-1127,889 Z M-155,891 Z M-1141,892 Z M-1183,898 Z M-1202,899 Z " transform="translate(1999,166)" style="fill: #FAFCFA;"/><path d="M0,0 L16,0 L21,1 L25,2 L30,1 L36,3 L40,5 L42,4 L46,7 L53,8 L56,11 L59,10 L60,12 L66,14 L69,17 L78,23 L78,25 L81,26 L85,30 L88,31 L92,37 L101,49 L103,53 L106,56 L108,62 L109,66 L111,66 L113,74 L116,81 L118,88 L121,104 L123,114 L124,119 L123,121 L125,127 L124,129 L126,135 L126,144 L125,148 L127,149 L127,152 L126,157 L127,165 L127,182 L128,193 L130,221 L130,238 L130,242 L129,249 L128,257 L127,265 L124,274 L122,281 L120,286 L118,286 L117,290 L114,297 L112,298 L110,303 L108,307 L105,310 L102,314 L99,315 L98,318 L92,322 L92,324 L78,333 L75,333 L74,335 L65,341 L56,344 L54,343 L53,345 L48,347 L43,346 L43,348 L35,349 L23,350 L4,351 L-4,352 L-15,352 L-17,353 L-23,352 L-31,353 L-37,352 L-38,354 L-38,352 L-51,354 L-59,354 L-63,355 L-70,356 L-70,403 L-69,416 L-69,442 L-68,455 L-68,467 L-67,469 L-67,492 L-67,495 L-67,511 L-66,517 L-66,520 L-66,537 L-65,541 L-65,544 L-65,566 L-64,574 L-64,579 L-65,583 L-65,589 L-64,594 L-63,605 L-63,608 L-65,609 L-64,615 L-64,622 L-63,626 L-63,632 L-64,634 L-63,643 L-63,671 L-62,679 L-63,683 L-62,715 L-61,748 L-61,771 L-60,774 L-61,783 L-60,802 L-60,811 L-59,825 L-59,837 L-58,842 L-59,861 L-60,872 L-61,875 L-64,889 L-66,889 L-66,895 L-68,895 L-68,898 L-70,898 L-70,903 L-72,903 L-72,906 L-74,906 L-76,912 L-78,913 L-81,918 L-86,923 L-90,927 L-95,932 L-100,934 L-102,938 L-105,939 L-107,939 L-113,944 L-118,946 L-127,950 L-135,951 L-136,953 L-143,954 L-151,957 L-163,959 L-171,960 L-173,961 L-188,962 L-197,963 L-207,963 L-208,965 L-212,964 L-219,965 L-223,966 L-240,967 L-246,967 L-251,968 L-266,969 L-268,970 L-268,968 L-275,969 L-284,970 L-285,969 L-288,970 L-295,971 L-300,970 L-310,971 L-313,970 L-321,968 L-333,967 L-342,964 L-349,963 L-350,960 L-360,957 L-364,954 L-368,953 L-368,951 L-375,949 L-384,942 L-388,938 L-391,936 L-390,935 L-395,930 L-397,926 L-399,925 L-399,922 L-402,921 L-405,915 L-405,913 L-407,912 L-406,910 L-408,910 L-410,903 L-411,901 L-410,899 L-412,899 L-414,888 L-417,879 L-418,863 L-417,861 L-419,860 L-419,856 L-420,847 L-421,833 L-421,821 L-423,809 L-422,803 L-424,802 L-422,802 L-423,795 L-424,781 L-424,773 L-425,769 L-425,763 L-426,761 L-424,761 L-424,759 L-426,758 L-424,758 L-426,752 L-426,739 L-427,729 L-426,727 L-428,726 L-426,726 L-428,717 L-427,713 L-428,696 L-428,687 L-429,678 L-430,656 L-431,648 L-432,642 L-430,642 L-432,624 L-432,613 L-433,605 L-434,587 L-435,582 L-435,579 L-435,571 L-436,569 L-435,563 L-436,558 L-436,549 L-437,546 L-437,542 L-438,532 L-437,527 L-438,511 L-439,488 L-439,476 L-441,455 L-441,447 L-441,445 L-442,430 L-441,426 L-442,418 L-442,409 L-443,400 L-443,386 L-444,381 L-445,377 L-449,376 L-457,377 L-464,377 L-471,378 L-479,378 L-484,379 L-491,378 L-492,380 L-495,379 L-498,379 L-509,381 L-516,381 L-519,382 L-519,380 L-528,382 L-538,382 L-543,383 L-550,381 L-551,383 L-555,381 L-563,381 L-573,379 L-573,377 L-577,378 L-589,372 L-591,372 L-591,370 L-600,367 L-608,361 L-613,358 L-618,353 L-621,350 L-621,348 L-623,347 L-624,344 L-626,344 L-626,342 L-628,341 L-631,338 L-634,331 L-635,327 L-637,327 L-639,323 L-641,317 L-642,314 L-643,314 L-647,296 L-650,286 L-651,275 L-654,254 L-655,247 L-654,241 L-656,240 L-656,233 L-655,230 L-657,229 L-657,227 L-656,223 L-658,219 L-658,202 L-660,202 L-659,194 L-660,184 L-661,181 L-659,181 L-660,174 L-661,164 L-661,151 L-661,147 L-660,138 L-658,138 L-659,131 L-657,122 L-654,115 L-651,105 L-649,104 L-648,96 L-646,96 L-645,92 L-641,86 L-641,84 L-639,84 L-637,80 L-631,72 L-627,68 L-625,68 L-625,65 L-618,63 L-619,60 L-614,58 L-609,57 L-608,54 L-597,48 L-591,46 L-589,46 L-589,44 L-584,43 L-582,44 L-582,42 L-575,40 L-571,40 L-570,38 L-556,37 L-546,36 L-539,37 L-538,35 L-532,35 L-530,34 L-519,33 L-516,33 L-508,33 L-505,34 L-504,32 L-500,32 L-483,31 L-462,30 L-461,28 L-461,30 L-454,29 L-438,28 L-434,28 L-430,29 L-429,27 L-427,26 L-427,28 L-420,27 L-415,26 L-408,25 L-406,25 L-392,25 L-389,25 L-380,24 L-377,23 L-373,24 L-370,24 L-361,23 L-354,22 L-348,22 L-345,21 L-345,23 L-340,21 L-329,21 L-324,20 L-314,19 L-312,20 L-308,19 L-305,20 L-304,18 L-301,19 L-290,18 L-272,16 L-268,17 L-264,16 L-258,15 L-256,16 L-253,15 L-249,15 L-244,14 L-240,14 L-224,14 L-220,13 L-216,13 L-207,13 L-204,12 L-200,13 L-196,12 L-185,12 L-179,11 L-161,10 L-143,9 L-136,8 L-133,9 L-127,8 L-124,9 L-116,7 L-106,7 L-97,6 L-86,6 L-73,5 L-70,4 L-69,5 L-56,3 L-53,4 L-47,3 L-38,3 L-34,2 L-19,2 L-12,1 L-3,1 L0,2 Z M1,1 Z M-34,3 Z M-127,9 Z M-168,11 Z M-165,11 Z M-160,11 Z M61,13 Z M-320,21 Z M-332,22 Z M-410,26 Z M-403,26 Z M-523,35 Z M95,43 Z M103,55 Z M-622,65 Z M-631,73 Z M-657,127 Z M-659,200 Z M119,283 Z M-640,318 Z M69,336 Z M47,345 Z M41,346 Z M37,347 Z M3,349 Z M-445,375 Z M-529,380 Z M-69,476 L-68,478 Z M-69,488 Z M-68,525 Z M-432,603 Z M-426,729 Z M-423,786 Z M-75,905 Z M-77,910 Z M-155,955 Z " transform="translate(704,105)" style="fill: #6FC6EB;"/><path d="M0,0 L16,0 L21,1 L25,2 L30,1 L36,3 L40,5 L42,4 L46,7 L53,8 L56,11 L59,10 L60,12 L66,14 L69,17 L78,23 L78,25 L81,26 L85,30 L88,31 L92,37 L101,49 L103,53 L106,56 L108,62 L109,66 L111,66 L113,74 L116,81 L118,88 L121,104 L123,114 L124,119 L123,121 L125,127 L124,129 L126,135 L126,144 L125,148 L127,149 L127,152 L126,157 L127,165 L127,182 L128,193 L130,221 L130,238 L130,242 L129,249 L128,257 L127,265 L124,274 L122,281 L120,286 L118,286 L117,290 L114,297 L112,298 L110,303 L108,307 L105,310 L102,314 L99,315 L98,318 L92,322 L92,324 L78,333 L75,333 L74,335 L65,341 L56,344 L54,343 L53,345 L48,347 L43,346 L43,348 L35,349 L23,350 L4,351 L-4,352 L-15,352 L-17,353 L-23,352 L-31,353 L-37,352 L-38,354 L-38,352 L-51,354 L-59,354 L-63,355 L-70,356 L-70,403 L-69,416 L-69,442 L-68,455 L-68,467 L-67,469 L-67,492 L-67,495 L-67,511 L-66,517 L-66,520 L-66,537 L-65,541 L-65,544 L-65,566 L-64,574 L-64,579 L-65,583 L-65,589 L-64,594 L-63,605 L-63,608 L-65,609 L-64,615 L-64,622 L-63,626 L-63,632 L-64,634 L-63,643 L-63,671 L-62,679 L-63,683 L-62,715 L-61,748 L-61,771 L-60,774 L-61,783 L-60,802 L-60,811 L-59,825 L-59,837 L-58,842 L-59,861 L-60,872 L-61,875 L-64,889 L-66,889 L-66,895 L-68,895 L-68,898 L-70,898 L-70,903 L-72,903 L-72,906 L-74,906 L-76,912 L-78,913 L-81,918 L-86,923 L-90,927 L-95,932 L-100,934 L-102,938 L-105,939 L-107,939 L-113,944 L-118,946 L-127,950 L-135,951 L-136,953 L-143,954 L-151,957 L-163,959 L-171,960 L-173,961 L-188,962 L-197,963 L-207,963 L-208,965 L-212,964 L-219,965 L-223,966 L-240,967 L-246,967 L-251,968 L-266,969 L-268,970 L-268,968 L-275,969 L-284,970 L-285,969 L-288,970 L-295,971 L-300,970 L-310,971 L-313,970 L-321,968 L-333,967 L-342,964 L-349,963 L-350,960 L-360,957 L-364,954 L-368,953 L-368,951 L-375,949 L-384,942 L-388,938 L-391,936 L-390,935 L-395,930 L-397,926 L-399,925 L-399,922 L-402,921 L-405,915 L-405,913 L-407,912 L-406,910 L-408,910 L-410,903 L-411,901 L-410,899 L-412,899 L-414,888 L-417,879 L-418,863 L-417,861 L-419,860 L-419,856 L-420,847 L-421,833 L-421,821 L-423,809 L-422,803 L-424,802 L-422,802 L-423,795 L-424,781 L-424,773 L-425,769 L-425,763 L-426,761 L-424,761 L-424,759 L-426,758 L-424,758 L-426,752 L-426,739 L-427,729 L-426,727 L-428,726 L-426,726 L-428,717 L-427,713 L-428,696 L-428,687 L-429,678 L-430,656 L-431,648 L-432,642 L-430,642 L-432,624 L-432,613 L-433,605 L-434,587 L-435,582 L-435,579 L-435,571 L-436,569 L-435,563 L-436,558 L-436,549 L-437,546 L-437,542 L-438,532 L-437,527 L-438,511 L-439,488 L-439,476 L-441,455 L-441,447 L-441,445 L-442,430 L-441,426 L-442,418 L-442,409 L-443,400 L-443,386 L-444,381 L-445,377 L-449,376 L-457,377 L-464,377 L-471,378 L-479,378 L-484,379 L-491,378 L-492,380 L-495,379 L-498,379 L-509,381 L-516,381 L-519,382 L-519,380 L-528,382 L-538,382 L-543,383 L-550,381 L-551,383 L-555,381 L-563,381 L-573,379 L-573,377 L-577,378 L-589,372 L-591,372 L-591,370 L-600,367 L-608,361 L-613,358 L-618,353 L-621,350 L-621,348 L-623,347 L-624,344 L-626,344 L-626,342 L-628,341 L-631,338 L-634,331 L-635,327 L-637,327 L-639,323 L-641,317 L-642,314 L-643,314 L-647,296 L-650,286 L-651,275 L-654,254 L-655,247 L-654,241 L-656,240 L-656,233 L-655,230 L-657,229 L-657,227 L-656,223 L-658,219 L-658,202 L-660,202 L-659,194 L-660,184 L-661,181 L-659,181 L-660,174 L-661,164 L-661,151 L-661,147 L-660,138 L-658,138 L-659,131 L-657,122 L-654,115 L-651,105 L-649,104 L-648,96 L-646,96 L-645,92 L-641,86 L-641,84 L-639,84 L-637,80 L-631,72 L-627,68 L-625,68 L-625,65 L-618,63 L-619,60 L-614,58 L-609,57 L-608,54 L-597,48 L-591,46 L-589,46 L-589,44 L-584,43 L-582,44 L-582,42 L-575,40 L-571,40 L-570,38 L-556,37 L-546,36 L-539,37 L-538,35 L-532,35 L-530,34 L-519,33 L-516,33 L-508,33 L-505,34 L-504,32 L-500,32 L-483,31 L-462,30 L-461,28 L-461,30 L-454,29 L-438,28 L-434,28 L-430,29 L-429,27 L-427,26 L-427,28 L-420,27 L-415,26 L-408,25 L-406,25 L-392,25 L-389,25 L-380,24 L-377,23 L-373,24 L-370,24 L-361,23 L-354,22 L-348,22 L-345,21 L-345,23 L-340,21 L-329,21 L-324,20 L-314,19 L-312,20 L-308,19 L-305,20 L-304,18 L-301,19 L-290,18 L-272,16 L-268,17 L-264,16 L-258,15 L-256,16 L-253,15 L-249,15 L-244,14 L-240,14 L-224,14 L-220,13 L-216,13 L-207,13 L-204,12 L-200,13 L-196,12 L-185,12 L-179,11 L-161,10 L-143,9 L-136,8 L-133,9 L-127,8 L-124,9 L-116,7 L-106,7 L-97,6 L-86,6 L-73,5 L-70,4 L-69,5 L-56,3 L-53,4 L-47,3 L-38,3 L-34,2 L-19,2 L-12,1 L-3,1 L0,2 Z M1,1 Z M-34,3 Z M-127,9 Z M-168,11 Z M-165,11 Z M-160,11 Z M61,13 Z M-320,21 Z M-332,22 Z M-410,26 Z M-403,26 Z M-523,35 Z M95,43 Z M103,55 Z M-622,65 Z M-8,70 L-44,72 L-79,74 L-96,75 L-122,77 L-166,79 L-210,82 L-247,84 L-275,86 L-311,88 L-342,90 L-371,92 L-403,94 L-430,96 L-461,98 L-511,102 L-532,104 L-559,107 L-570,111 L-574,113 L-574,115 L-578,116 L-578,118 L-581,119 L-587,128 L-590,136 L-592,150 L-592,169 L-589,206 L-588,225 L-585,255 L-583,270 L-580,285 L-573,299 L-565,307 L-555,312 L-549,312 L-546,313 L-529,313 L-524,312 L-505,312 L-500,311 L-488,310 L-483,311 L-438,307 L-418,305 L-399,304 L-385,303 L-376,303 L-376,330 L-375,335 L-376,349 L-375,353 L-375,377 L-374,379 L-374,386 L-373,393 L-373,408 L-372,417 L-372,459 L-370,498 L-369,525 L-367,556 L-365,603 L-363,636 L-361,668 L-360,691 L-358,720 L-356,755 L-354,785 L-353,799 L-352,818 L-350,841 L-348,868 L-346,881 L-342,889 L-340,889 L-338,893 L-326,899 L-309,902 L-297,902 L-261,900 L-241,899 L-192,895 L-177,893 L-157,889 L-144,884 L-137,878 L-129,866 L-129,793 L-130,760 L-131,721 L-131,703 L-132,660 L-132,639 L-133,603 L-133,583 L-134,555 L-136,487 L-138,485 L-136,481 L-138,479 L-136,473 L-136,428 L-137,420 L-138,409 L-138,398 L-139,397 L-139,364 L-140,357 L-140,305 L-141,288 L-117,288 L-113,287 L-77,287 L-60,286 L7,283 L10,282 L25,282 L37,279 L48,272 L56,262 L60,249 L61,239 L61,204 L59,161 L57,134 L53,110 L49,95 L43,84 L36,77 L27,72 L19,70 Z M-631,73 Z M-657,127 Z M-659,200 Z M119,283 Z M-640,318 Z M69,336 Z M47,345 Z M41,346 Z M37,347 Z M3,349 Z M-445,375 Z M-529,380 Z M-69,476 L-68,478 Z M-69,488 Z M-68,525 Z M-432,603 Z M-426,729 Z M-423,786 Z M-75,905 Z M-77,910 Z M-155,955 Z " transform="translate(704,105)" style="fill: #F9FBF8;"/><path d="M0,0 L46,0 L72,3 L87,7 L111,15 L121,20 L127,19 L149,11 L181,3 L203,0 L246,0 L270,3 L289,7 L307,12 L327,20 L347,31 L362,42 L374,53 L379,58 L385,64 L385,66 L387,66 L396,79 L396,81 L398,81 L407,97 L414,112 L420,127 L423,139 L426,153 L427,168 L429,175 L429,194 L430,203 L428,234 L423,264 L423,284 L426,299 L432,313 L442,327 L444,331 L446,331 L452,340 L452,350 L446,359 L443,360 L443,362 L428,372 L410,386 L392,399 L383,405 L380,405 L380,407 L368,414 L365,415 L351,415 L338,410 L334,408 L334,406 L331,406 L331,404 L327,403 L315,395 L315,393 L311,391 L299,379 L290,367 L284,357 L278,345 L274,329 L272,309 L272,284 L275,264 L277,255 L280,237 L281,224 L282,220 L281,216 L282,211 L281,203 L279,181 L273,162 L269,154 L266,147 L262,142 L262,140 L260,140 L260,138 L255,136 L247,130 L238,127 L236,125 L221,124 L219,125 L216,124 L208,127 L206,131 L213,160 L214,165 L214,174 L215,181 L216,190 L216,195 L218,197 L218,214 L219,223 L219,256 L218,262 L218,278 L214,326 L211,348 L208,376 L206,391 L204,395 L196,401 L189,403 L151,402 L130,401 L94,400 L78,399 L71,395 L67,390 L66,387 L66,376 L70,352 L73,325 L75,303 L76,279 L75,274 L75,265 L76,256 L76,245 L77,227 L76,225 L78,219 L77,217 L77,201 L76,188 L76,185 L74,171 L73,161 L70,156 L63,143 L58,139 L57,136 L53,134 L53,132 L50,132 L48,129 L43,126 L33,125 L17,125 L16,126 L13,183 L12,205 L11,236 L8,291 L7,328 L6,349 L5,378 L4,392 L-2,399 L-7,401 L-44,401 L-71,400 L-103,399 L-121,398 L-128,398 L-135,395 L-135,393 L-137,393 L-139,389 L-140,382 L-138,351 L-135,301 L-135,284 L-134,246 L-133,228 L-132,210 L-131,204 L-131,172 L-129,122 L-128,112 L-128,96 L-127,86 L-126,60 L-124,34 L-120,26 L-117,25 L-117,23 L-109,19 L-79,12 L-48,6 L-13,1 Z " transform="translate(2590,563)" style="fill: #79CBEE;"/><path d="M0,0 L61,0 L98,1 L115,2 L124,6 L129,11 L134,19 L134,52 L133,78 L132,136 L131,157 L130,188 L129,238 L128,276 L128,290 L127,314 L132,313 L133,310 L141,303 L144,302 L145,299 L152,293 L154,293 L155,290 L166,281 L169,280 L170,277 L181,268 L194,257 L208,245 L212,242 L214,242 L215,239 L223,232 L225,232 L225,230 L236,221 L247,212 L259,202 L265,197 L267,197 L268,194 L277,188 L285,186 L293,186 L299,189 L304,194 L310,200 L310,202 L312,202 L321,213 L326,218 L326,220 L328,220 L336,230 L345,240 L349,245 L349,247 L351,247 L359,257 L367,268 L369,278 L367,290 L364,294 L362,294 L362,296 L351,305 L337,316 L335,316 L335,318 L324,327 L321,328 L321,330 L313,336 L303,344 L298,348 L296,348 L296,350 L286,358 L273,369 L268,374 L266,374 L266,376 L258,382 L264,390 L273,401 L274,405 L278,407 L284,413 L284,416 L288,418 L294,425 L294,427 L296,427 L306,440 L317,453 L317,455 L319,455 L328,466 L336,475 L336,477 L338,477 L347,488 L348,491 L350,491 L357,500 L366,510 L373,518 L374,521 L376,521 L386,534 L391,543 L391,552 L386,560 L382,562 L381,565 L367,575 L355,584 L336,597 L321,608 L300,622 L289,630 L283,633 L273,634 L265,631 L261,629 L261,627 L257,625 L243,604 L234,591 L228,582 L218,568 L209,554 L194,532 L179,510 L171,499 L161,484 L151,470 L144,458 L142,457 L137,448 L126,434 L124,431 L123,438 L122,446 L122,470 L121,498 L119,534 L119,544 L117,575 L116,600 L114,608 L107,616 L105,617 L68,617 L38,616 L-11,615 L-22,613 L-27,609 L-31,602 L-31,578 L-30,544 L-29,541 L-30,531 L-29,497 L-28,466 L-27,424 L-26,420 L-26,396 L-25,379 L-24,341 L-23,303 L-21,240 L-20,217 L-19,171 L-17,96 L-16,68 L-15,34 L-13,14 L-10,8 L-5,3 Z " transform="translate(1546,361)" style="fill: #8ED8F7;"/><path d="M0,0 L25,1 L47,3 L78,5 L108,8 L119,11 L124,15 L127,22 L127,30 L122,72 L120,91 L118,114 L116,143 L115,163 L115,214 L118,239 L122,255 L127,266 L133,275 L136,278 L136,280 L140,282 L156,290 L172,292 L182,292 L194,290 L204,285 L211,280 L212,278 L214,278 L216,274 L223,264 L228,252 L233,228 L234,225 L235,206 L237,197 L237,178 L238,158 L239,108 L238,43 L238,27 L241,20 L246,16 L253,13 L258,12 L294,12 L325,13 L362,13 L368,15 L372,17 L372,19 L374,19 L379,28 L381,42 L382,69 L383,87 L383,176 L382,198 L378,236 L373,266 L366,294 L359,314 L352,329 L344,343 L334,357 L325,367 L314,378 L305,385 L298,390 L296,390 L296,392 L285,398 L283,398 L283,400 L264,408 L250,412 L239,415 L235,416 L224,419 L221,421 L214,423 L202,424 L195,425 L149,425 L117,420 L101,416 L100,414 L96,415 L92,411 L77,405 L61,397 L48,389 L48,387 L43,385 L33,377 L33,375 L31,375 L31,373 L29,373 L29,371 L27,371 L27,369 L25,369 L25,367 L23,367 L15,357 L2,339 L-6,323 L-12,316 L-14,311 L-17,301 L-19,295 L-21,286 L-22,282 L-23,273 L-24,269 L-26,267 L-25,257 L-27,257 L-29,247 L-31,233 L-32,220 L-33,210 L-34,197 L-32,195 L-32,146 L-30,116 L-28,100 L-24,68 L-19,38 L-16,23 L-13,11 L-6,2 Z " transform="translate(1073,563)" style="fill: #7CCDEF;"/><path d="M0,0 L17,1 L48,3 L72,5 L92,7 L112,9 L119,12 L125,19 L126,27 L125,42 L122,63 L120,86 L117,114 L113,168 L114,215 L117,239 L121,255 L125,265 L131,274 L132,277 L136,279 L144,285 L157,290 L175,292 L192,290 L201,286 L212,278 L218,270 L225,256 L230,237 L233,217 L234,216 L234,206 L235,201 L235,180 L236,164 L237,160 L238,125 L238,91 L237,57 L236,32 L238,24 L242,18 L246,15 L258,12 L306,12 L339,13 L361,13 L370,16 L376,23 L379,32 L381,60 L383,94 L383,168 L382,172 L382,175 L381,188 L381,202 L378,230 L373,260 L367,286 L359,310 L354,322 L343,342 L332,358 L329,362 L327,362 L325,366 L320,371 L318,371 L317,374 L310,380 L308,380 L308,382 L304,383 L304,385 L298,389 L288,396 L278,401 L266,407 L248,413 L240,415 L223,419 L216,420 L194,423 L148,423 L131,421 L104,415 L84,409 L57,396 L42,385 L32,376 L30,375 L30,373 L26,371 L15,359 L5,345 L-5,329 L-13,310 L-20,289 L-26,263 L-31,230 L-33,204 L-33,201 L-34,193 L-33,162 L-32,141 L-30,112 L-26,74 L-20,34 L-16,16 L-10,5 L-4,1 Z " transform="translate(2013,563)" style="fill: #7ACCEE;"/><path d="M0,0 L31,0 L50,2 L59,6 L62,11 L72,47 L79,73 L84,94 L85,102 L83,110 L79,113 L70,115 L47,116 L30,120 L18,126 L9,134 L5,142 L6,157 L11,170 L20,185 L31,199 L42,212 L50,222 L63,239 L75,259 L83,277 L87,293 L89,309 L89,320 L88,334 L83,352 L75,370 L64,386 L47,403 L33,414 L18,423 L2,431 L-11,437 L-20,440 L-41,447 L-59,451 L-80,454 L-89,455 L-116,456 L-134,454 L-143,448 L-147,441 L-153,424 L-158,409 L-161,398 L-164,389 L-168,378 L-171,368 L-174,361 L-176,350 L-173,341 L-168,338 L-137,334 L-121,330 L-106,324 L-97,318 L-91,311 L-88,304 L-87,294 L-89,285 L-93,276 L-100,265 L-110,254 L-110,251 L-114,249 L-124,237 L-132,227 L-137,221 L-137,219 L-139,219 L-150,203 L-158,188 L-164,171 L-168,154 L-168,148 L-169,147 L-169,134 L-170,129 L-169,116 L-165,100 L-163,95 L-155,79 L-148,69 L-145,64 L-143,64 L-141,60 L-138,56 L-136,56 L-135,53 L-133,53 L-131,49 L-117,38 L-99,27 L-83,20 L-72,15 L-54,9 L-26,3 Z " transform="translate(902,543)" style="fill: #79CBEE;"/><path d="M0,0 L4,3 L5,5 L3,7 L6,9 L2,11 L0,8 L0,3 Z M50,-41 L53,-40 L54,-3 L55,28 L55,49 L56,85 L56,107 L57,150 L57,167 L58,204 L59,237 L59,300 L50,313 L42,319 L31,323 L9,327 L-15,330 L-57,333 L-93,335 L-119,336 L-129,335 L-141,332 L-151,326 L-152,323 L-154,323 L-158,315 L-160,302 L-163,262 L-165,232 L-167,200 L-170,156 L-171,135 L-173,104 L-174,84 L-172,84 L-172,92 L-167,88 L-163,88 L-166,86 L-165,79 L-169,77 L-166,75 L-167,74 L-167,71 L-164,70 L-165,70 L-165,61 L-166,59 L-167,52 L-165,51 L-165,44 L-166,45 L-168,43 L-165,40 L-165,33 L-161,29 L-164,29 L-164,26 L-166,25 L-164,24 L-165,20 L-163,17 L-165,16 L-159,8 L-157,8 L-156,4 L-154,7 L-149,11 L-146,10 L-144,6 L-140,14 L-142,20 L-137,22 L-133,19 L-134,14 L-131,14 L-131,17 L-129,13 L-128,17 L-126,15 L-124,14 L-122,20 L-119,16 L-123,15 L-124,12 L-122,7 L-118,4 L-113,3 L-115,2 L-113,-2 L-110,-3 L-109,1 L-111,1 L-110,7 L-107,5 L-104,9 L-101,9 L-100,12 L-100,14 L-95,15 L-95,17 L-90,17 L-86,16 L-84,16 L-83,14 L-81,16 L-76,14 L-75,10 L-72,10 L-70,9 L-66,12 L-61,11 L-57,11 L-56,9 L-54,5 L-50,2 L-46,5 L-48,6 L-48,9 L-45,9 L-43,7 L-41,7 L-41,9 L-35,9 L-33,10 L-34,7 L-40,8 L-39,5 L-42,6 L-42,3 L-39,-3 L-37,-2 L-36,2 L-37,3 L-34,3 L-31,2 L-30,9 L-29,10 L-28,7 L-26,8 L-26,3 L-24,4 L-23,9 L-20,9 L-15,8 L-12,11 L-14,6 L-10,7 L-8,9 L-7,8 L-9,5 L-5,4 L-2,9 L2,11 L0,16 L4,13 L7,10 L12,11 L13,16 L18,16 L19,19 L20,16 L24,15 L27,14 L29,15 L30,13 L35,14 L41,12 L42,14 L39,17 L44,18 L43,23 L45,22 L44,16 L44,13 L45,9 L50,9 L50,7 L45,8 L45,5 L44,4 L44,11 L40,10 L39,7 L37,5 L36,3 L34,3 L31,6 L29,9 L28,4 L29,-1 L33,-2 L38,-3 L38,-9 L40,-9 L39,-11 L35,-8 L33,-3 L32,-6 L29,-2 L27,-3 L27,-5 L29,-5 L31,-9 L34,-12 L33,-16 L31,-16 L31,-18 L36,-17 L40,-14 L43,-13 L48,-14 L49,-9 L51,-10 L52,-14 L50,-15 L52,-15 L52,-18 L50,-19 L52,-19 L51,-24 L52,-26 L50,-27 L51,-28 Z M-117,6 L-120,11 L-118,15 L-118,19 L-116,19 L-115,21 L-113,20 L-113,18 L-107,17 L-108,14 L-113,12 L-111,9 L-115,6 Z M-100,10 Z " transform="translate(516,671)" style="fill: #8AD5F4;"/><path d="M0,0 L2,1 L0,5 L0,8 L-2,8 L-2,10 L-10,16 L-4,24 L5,35 L6,39 L10,41 L16,47 L16,50 L20,52 L26,59 L26,61 L28,61 L38,74 L49,87 L49,89 L51,89 L60,100 L68,109 L68,111 L70,111 L79,122 L80,125 L82,125 L89,134 L98,144 L105,152 L106,155 L108,155 L118,168 L123,177 L123,186 L118,194 L114,196 L113,199 L99,209 L87,218 L68,231 L53,242 L32,256 L21,264 L15,267 L5,268 L-3,265 L-7,263 L-7,261 L-11,259 L-25,238 L-34,225 L-40,216 L-50,202 L-59,188 L-74,166 L-89,144 L-97,133 L-107,118 L-117,104 L-124,92 L-126,91 L-131,82 L-142,68 L-144,65 L-145,72 L-146,80 L-146,104 L-147,132 L-149,168 L-149,178 L-151,209 L-152,234 L-154,242 L-161,250 L-163,251 L-200,251 L-230,250 L-279,249 L-290,247 L-295,243 L-299,236 L-299,212 L-298,178 L-297,175 L-298,165 L-297,131 L-296,100 L-295,58 L-294,54 L-294,32 L-289,30 L-239,30 L-234,29 L-218,29 L-199,28 L-178,27 L-169,26 L-156,26 L-152,25 L-134,24 L-119,22 L-96,20 L-71,16 L-64,15 L-59,14 L-45,12 L-33,10 L-17,6 L-11,4 Z " transform="translate(1814,727)" style="fill: #7BCCEE;"/><path d="M0,0 L93,0 L126,1 L132,3 L137,8 L140,15 L140,44 L139,61 L139,92 L135,209 L134,246 L133,270 L131,314 L129,358 L129,366 L127,375 L124,376 L123,379 L118,382 L41,382 L-3,381 L-10,378 L-13,375 L-15,371 L-16,358 L-15,313 L-15,264 L-14,221 L-14,184 L-12,17 L-9,7 L-3,1 Z " transform="translate(3103,595)" style="fill: #80D0F1;"/><path d="M0,0 L2,0 L12,14 L18,22 L23,23 L39,13 L47,8 L51,10 L56,22 L59,41 L59,57 L56,74 L50,91 L44,100 L34,116 L32,120 L32,123 L61,123 L78,125 L98,132 L112,139 L116,144 L111,151 L109,151 L107,155 L100,163 L98,169 L108,179 L116,186 L116,188 L119,189 L117,194 L107,201 L94,209 L79,214 L58,216 L42,215 L21,210 L11,207 L10,206 L5,206 L6,213 L14,249 L15,259 L13,275 L8,288 L4,291 L-5,291 L-20,284 L-25,285 L-31,296 L-38,306 L-43,308 L-53,302 L-53,300 L-55,300 L-55,298 L-59,296 L-59,294 L-63,292 L-63,290 L-65,290 L-66,286 L-68,286 L-76,272 L-78,265 L-81,256 L-83,246 L-83,215 L-82,203 L-89,206 L-103,215 L-119,223 L-124,226 L-140,231 L-150,232 L-168,232 L-172,230 L-171,216 L-170,201 L-183,197 L-199,192 L-200,189 L-195,177 L-188,165 L-181,157 L-179,157 L-179,155 L-168,146 L-158,139 L-145,133 L-128,128 L-111,124 L-109,122 L-116,116 L-116,114 L-120,112 L-125,108 L-125,106 L-129,104 L-143,90 L-149,82 L-154,71 L-158,58 L-158,45 L-152,43 L-133,41 L-128,41 L-128,27 L-126,10 L-125,9 L-112,9 L-95,14 L-85,19 L-72,28 L-57,43 L-52,50 L-52,52 L-50,52 L-44,61 L-44,63 L-42,62 L-34,43 L-25,27 L-19,19 L-17,19 L-15,15 L-13,15 L-11,11 Z " transform="translate(2000,204)" style="fill: #8FD8F7;"/><path d="M0,0 L27,0 L37,3 L46,9 L53,17 L58,28 L62,46 L64,57 L64,63 L62,62 L60,51 L57,52 L35,50 L17,49 L1,47 L-27,45 L-36,45 L-40,44 L-70,44 L-83,45 L-104,47 L-144,51 L-166,54 L-174,55 L-179,56 L-195,59 L-213,63 L-229,67 L-238,69 L-248,71 L-255,74 L-275,80 L-296,86 L-314,92 L-333,99 L-358,109 L-373,116 L-395,125 L-397,125 L-397,127 L-404,130 L-423,139 L-426,141 L-429,141 L-429,143 L-452,154 L-464,161 L-479,170 L-482,170 L-482,172 L-494,179 L-511,191 L-527,202 L-537,208 L-539,208 L-540,211 L-553,219 L-555,219 L-557,223 L-563,227 L-564,230 L-570,220 L-574,207 L-577,185 L-581,142 L-582,127 L-584,95 L-584,80 L-582,66 L-578,56 L-572,48 L-570,48 L-570,46 L-566,45 L-566,43 L-555,38 L-534,35 L-515,33 L-462,29 L-434,27 L-395,24 L-358,22 L-318,19 L-282,17 L-250,15 L-217,13 L-172,10 L-135,8 L-109,7 L-73,4 L-48,3 L-16,1 Z " transform="translate(696,175)" style="fill: #93DAF7;"/><path d="M0,0 L4,2 L2,2 L0,7 L0,12 L6,9 L9,11 L10,7 L13,4 L16,7 L21,5 L20,10 L19,11 L21,12 L21,14 L18,14 L21,16 L21,19 L20,20 L22,24 L21,27 L19,27 L21,32 L22,36 L22,43 L22,46 L23,49 L21,52 L24,53 L24,41 L24,37 L23,30 L24,27 L24,24 L23,20 L26,18 L28,26 L26,26 L28,32 L27,35 L29,39 L27,43 L29,45 L28,48 L26,48 L27,50 L29,51 L28,54 L30,55 L27,62 L29,63 L29,66 L27,70 L26,71 L29,72 L30,88 L30,94 L35,93 L36,130 L34,132 L35,153 L35,165 L34,163 L32,163 L32,160 L29,159 L25,160 L20,157 L14,154 L14,156 L16,156 L18,161 L16,161 L15,164 L11,168 L13,168 L13,166 L16,166 L18,162 L23,160 L22,169 L20,171 L17,170 L13,173 L12,180 L14,177 L16,177 L17,173 L17,175 L19,175 L20,173 L20,176 L22,177 L23,182 L27,183 L26,176 L27,174 L29,174 L28,179 L33,179 L33,181 L28,181 L29,187 L28,189 L29,195 L25,196 L27,190 L23,191 L21,188 L23,185 L20,185 L19,188 L16,186 L10,187 L6,189 L3,189 L2,191 L-1,190 L0,189 L-5,188 L-6,183 L-10,182 L-12,186 L-14,187 L-17,189 L-19,187 L-16,185 L-16,183 L-22,180 L-23,178 L-25,178 L-23,179 L-23,181 L-26,182 L-27,179 L-30,179 L-28,181 L-29,183 L-33,183 L-41,182 L-43,175 L-42,183 L-45,180 L-46,182 L-48,181 L-49,177 L-54,176 L-55,172 L-55,170 L-59,177 L-56,177 L-55,179 L-51,178 L-49,182 L-52,182 L-58,181 L-61,181 L-63,182 L-68,179 L-65,176 L-68,175 L-71,180 L-74,183 L-78,183 L-79,185 L-82,184 L-84,185 L-87,182 L-91,184 L-92,185 L-94,188 L-97,187 L-98,189 L-100,187 L-104,189 L-106,189 L-108,191 L-110,191 L-110,189 L-112,189 L-112,187 L-117,189 L-119,184 L-120,183 L-123,183 L-124,178 L-126,180 L-129,179 L-128,178 L-128,173 L-126,173 L-128,170 L-132,174 L-129,175 L-131,178 L-135,177 L-139,182 L-140,187 L-136,188 L-138,193 L-141,190 L-141,186 L-143,189 L-145,189 L-146,188 L-148,189 L-148,186 L-150,192 L-154,195 L-159,193 L-160,191 L-158,191 L-158,186 L-161,180 L-165,185 L-167,185 L-172,180 L-173,177 L-174,180 L-178,184 L-181,188 L-180,193 L-181,201 L-178,201 L-180,205 L-182,205 L-181,210 L-182,212 L-179,213 L-184,215 L-181,216 L-181,224 L-183,226 L-182,226 L-182,232 L-181,236 L-181,241 L-179,243 L-182,244 L-184,243 L-181,247 L-182,249 L-185,249 L-180,250 L-181,253 L-180,255 L-183,255 L-181,258 L-180,260 L-186,263 L-189,264 L-190,256 L-191,255 L-194,207 L-196,161 L-198,125 L-199,103 L-201,59 L-201,44 L-200,44 L-199,63 L-197,63 L-197,57 L-198,53 L-198,50 L-197,41 L-197,32 L-197,28 L-197,21 L-197,17 L-196,12 L-196,8 L-194,7 L-193,11 L-191,12 L-192,7 L-189,7 L-188,9 L-187,13 L-183,11 L-181,13 L-179,12 L-179,15 L-181,16 L-179,18 L-175,19 L-171,19 L-170,17 L-165,18 L-168,21 L-170,22 L-170,25 L-163,24 L-159,22 L-156,19 L-152,15 L-150,14 L-149,11 L-146,8 L-146,6 L-151,7 L-152,4 L-147,2 L-147,4 L-144,3 L-142,6 L-143,8 L-137,6 L-135,5 L-132,10 L-132,13 L-129,6 L-127,8 L-126,13 L-126,10 L-126,8 L-123,7 L-120,8 L-120,10 L-118,11 L-115,11 L-113,9 L-111,7 L-111,12 L-109,10 L-110,7 L-109,5 L-107,6 L-105,6 L-100,5 L-100,3 L-95,1 L-93,2 L-92,7 L-89,10 L-90,12 L-85,13 L-83,8 L-80,5 L-77,6 L-76,5 L-73,2 L-72,9 L-74,11 L-78,13 L-77,16 L-80,16 L-81,21 L-80,26 L-77,23 L-75,25 L-72,24 L-69,26 L-66,25 L-64,27 L-61,27 L-56,29 L-54,28 L-51,29 L-50,26 L-50,28 L-47,28 L-49,27 L-49,25 L-44,26 L-46,27 L-46,31 L-44,29 L-41,29 L-40,26 L-39,23 L-37,21 L-31,20 L-31,22 L-34,25 L-30,28 L-31,23 L-29,23 L-28,21 L-27,22 L-26,19 L-23,19 L-23,22 L-20,22 L-21,16 L-17,11 L-18,8 L-14,10 L-13,14 L-10,16 L-7,14 L-7,11 L-5,10 L-5,14 L-4,10 L-6,8 L-6,5 L-3,4 L-1,5 Z M-17,172 L-17,175 L-17,180 L-14,183 L-11,180 L-15,179 L-12,177 L-13,175 Z M-117,182 Z M-132,5 Z M-133,6 Z M-134,178 L-129,180 L-128,182 L-130,184 L-124,187 L-125,189 L-130,190 L-131,192 L-133,193 L-133,191 L-135,191 L-135,185 L-137,182 Z " transform="translate(533,499)" style="fill: #7CCDEF;"/><path d="M0,0 L46,0 L72,3 L87,7 L111,15 L121,20 L127,19 L149,11 L181,3 L203,0 L246,0 L270,3 L289,7 L307,12 L327,20 L347,31 L362,42 L374,53 L379,58 L385,64 L385,66 L387,66 L396,79 L396,81 L398,81 L407,97 L414,112 L418,122 L417,124 L412,123 L388,120 L376,117 L369,117 L363,115 L358,114 L337,110 L328,108 L312,104 L302,101 L292,98 L280,95 L270,91 L261,89 L252,86 L242,83 L213,76 L208,75 L196,72 L190,71 L173,68 L167,67 L160,66 L154,67 L142,64 L136,64 L129,63 L62,63 L53,64 L44,64 L28,65 L15,66 L10,67 L-22,71 L-29,72 L-67,79 L-93,86 L-111,91 L-114,91 L-114,93 L-123,95 L-125,95 L-126,99 L-127,111 L-128,111 L-128,96 L-127,86 L-126,60 L-124,34 L-120,26 L-117,25 L-117,23 L-109,19 L-79,12 L-48,6 L-13,1 Z " transform="translate(2590,563)" style="fill: #8FD9F7;"/><path d="M0,0 L13,1 L26,4 L41,9 L52,15 L66,26 L74,35 L82,46 L88,57 L93,70 L96,84 L97,94 L97,107 L95,123 L92,129 L89,139 L80,155 L70,168 L68,168 L66,172 L53,182 L38,190 L27,194 L12,197 L3,198 L-13,198 L-29,194 L-44,188 L-55,182 L-68,172 L-68,170 L-70,170 L-80,157 L-87,146 L-92,136 L-97,119 L-99,105 L-99,93 L-96,74 L-91,59 L-84,46 L-75,34 L-73,34 L-71,30 L-61,21 L-51,14 L-37,7 L-22,2 L-16,1 Z " transform="translate(3168,374)" style="fill: #8FD8F7;"/><path d="M0,0 L3,3 L8,1 L8,3 L10,3 L11,1 L16,2 L20,3 L25,2 L43,2 L45,3 L46,1 L48,3 L50,2 L56,3 L59,3 L64,3 L67,3 L86,4 L89,6 L90,4 L90,6 L95,4 L99,7 L102,8 L103,10 L104,7 L106,8 L105,22 L100,40 L92,58 L81,74 L64,91 L50,102 L35,111 L19,119 L6,125 L-3,128 L-24,135 L-42,139 L-63,142 L-72,143 L-99,144 L-117,142 L-126,136 L-130,129 L-136,112 L-141,97 L-144,86 L-147,77 L-151,66 L-154,56 L-157,49 L-159,38 L-156,29 L-151,26 L-120,22 L-104,18 L-89,12 L-80,6 L-78,5 L-78,11 L-68,9 L-66,8 L-66,10 L-60,7 L-55,8 L-42,7 L-32,6 L-21,5 L-19,4 L-16,5 L-15,1 L-15,5 L-8,3 L-6,4 L-5,1 L-4,3 L-1,1 Z " transform="translate(885,855)" style="fill: #8FD8F6;"/><path d="M0,0 L17,1 L48,3 L72,5 L92,7 L112,9 L119,12 L125,19 L126,27 L125,42 L122,63 L120,86 L117,114 L113,168 L113,210 L112,210 L111,179 L107,179 L94,180 L84,182 L76,182 L71,184 L62,184 L55,183 L36,184 L12,183 L-7,181 L-14,179 L-27,176 L-32,173 L-31,182 L-31,200 L-33,201 L-34,193 L-33,162 L-32,141 L-30,112 L-26,74 L-20,34 L-16,16 L-10,5 L-4,1 Z " transform="translate(2013,563)" style="fill: #8ED8F7;"/><path d="M0,0 L36,0 L67,1 L104,1 L110,3 L114,5 L114,7 L116,7 L121,16 L123,30 L124,57 L125,75 L125,164 L124,182 L98,181 L92,180 L76,179 L55,178 L41,177 L32,176 L27,176 L23,175 L18,174 L15,174 L3,173 L-3,172 L-14,172 L-18,171 L-19,170 L-21,172 L-20,146 L-19,96 L-20,31 L-20,15 L-17,8 L-12,4 L-5,1 Z " transform="translate(1331,575)" style="fill: #8ED8F7;"/><path d="M0,0 L1,4 L3,5 L4,9 L5,14 L8,8 L10,5 L13,6 L14,4 L15,8 L15,9 L15,12 L16,16 L13,17 L14,18 L17,20 L19,19 L20,22 L18,29 L15,27 L14,26 L17,30 L18,36 L22,40 L22,47 L26,48 L26,56 L25,62 L25,78 L21,126 L18,148 L15,176 L13,191 L11,195 L3,201 L-4,203 L-42,202 L-63,201 L-99,200 L-115,199 L-122,195 L-126,190 L-127,187 L-127,176 L-123,152 L-120,125 L-118,103 L-117,79 L-118,74 L-118,65 L-117,56 L-117,45 L-116,27 L-117,25 L-116,23 L-114,24 L-113,31 L-114,37 L-113,42 L-113,53 L-115,65 L-114,69 L-113,67 L-112,54 L-112,52 L-111,36 L-109,33 L-111,32 L-107,33 L-106,36 L-106,39 L-103,38 L-105,38 L-105,35 L-102,35 L-101,30 L-105,28 L-105,27 L-100,26 L-103,23 L-103,14 L-101,10 L-105,8 L-100,6 L-95,8 L-99,12 L-97,15 L-97,18 L-97,21 L-94,22 L-90,23 L-89,21 L-88,24 L-82,21 L-79,21 L-77,18 L-74,16 L-73,19 L-70,19 L-68,15 L-64,19 L-62,18 L-61,24 L-62,29 L-59,29 L-59,31 L-51,31 L-49,35 L-47,33 L-45,33 L-41,31 L-42,29 L-40,29 L-39,24 L-36,25 L-32,23 L-32,21 L-30,21 L-29,19 L-25,19 L-24,20 L-22,20 L-20,22 L-18,22 L-17,19 L-16,23 L-15,19 L-15,17 L-12,16 L-11,21 L-10,25 L-7,26 L-4,20 L3,18 L-1,17 L0,14 L2,12 L-1,6 L-5,5 L-1,3 Z M-4,13 L-2,14 L-1,18 L-4,18 L-5,20 L-6,14 Z M-61,15 Z M-62,17 Z " transform="translate(2783,763)" style="fill: #86D2F2;"/><path d="M0,0 L2,0 L0,9 L-5,26 L-10,39 L-20,58 L-34,79 L-37,83 L-39,83 L-41,87 L-46,92 L-48,92 L-49,95 L-56,101 L-58,101 L-58,103 L-62,104 L-62,106 L-68,110 L-78,117 L-88,122 L-100,128 L-118,134 L-126,136 L-143,140 L-150,141 L-172,144 L-218,144 L-235,142 L-262,136 L-282,130 L-309,117 L-324,106 L-334,97 L-336,96 L-336,94 L-340,92 L-351,80 L-361,66 L-366,58 L-364,54 L-361,62 L-354,71 L-352,72 L-350,72 L-342,71 L-339,72 L-336,68 L-334,65 L-333,67 L-328,64 L-327,66 L-329,66 L-329,74 L-327,75 L-329,79 L-335,79 L-332,82 L-330,82 L-329,80 L-327,82 L-324,83 L-323,88 L-321,82 L-319,83 L-317,83 L-314,86 L-313,84 L-306,86 L-306,84 L-301,83 L-301,80 L-296,78 L-296,80 L-293,81 L-293,83 L-291,83 L-294,78 L-292,77 L-292,79 L-290,79 L-289,76 L-288,80 L-282,75 L-280,73 L-277,77 L-271,75 L-267,74 L-265,70 L-261,73 L-256,71 L-253,72 L-251,70 L-249,69 L-249,71 L-245,68 L-241,69 L-238,67 L-235,68 L-236,65 L-232,67 L-228,63 L-225,64 L-224,63 L-216,62 L-210,60 L-210,62 L-206,60 L-204,61 L-204,59 L-201,59 L-197,58 L-194,58 L-183,54 L-179,54 L-173,53 L-171,54 L-171,52 L-166,51 L-163,52 L-162,49 L-161,51 L-159,51 L-159,49 L-153,48 L-146,46 L-136,44 L-133,43 L-131,44 L-131,42 L-125,41 L-121,40 L-120,41 L-115,39 L-107,38 L-103,36 L-103,38 L-99,35 L-96,36 L-95,34 L-91,34 L-85,31 L-85,33 L-79,32 L-77,30 L-77,32 L-70,31 L-69,29 L-66,28 L-65,29 L-59,27 L-53,27 L-50,26 L-47,26 L-26,23 L-22,22 L-17,22 L-13,20 L-4,18 L-4,13 L-7,11 L-5,11 L-5,8 L-7,7 L-3,5 L-2,6 Z M-6,13 Z " transform="translate(2379,842)" style="fill: #90D8F6;"/><path d="M0,0 L25,1 L47,3 L78,5 L108,8 L119,11 L124,15 L127,22 L127,30 L122,72 L120,91 L118,114 L116,143 L115,163 L113,164 L113,159 L104,158 L88,154 L77,150 L70,148 L56,144 L32,136 L21,132 L12,129 L5,126 L-14,118 L-19,115 L-26,113 L-27,119 L-29,115 L-29,108 L-27,92 L-24,67 L-20,44 L-17,27 L-13,11 L-6,2 Z " transform="translate(1073,563)" style="fill: #8ED8F7;"/><path d="M0,0 L5,5 L5,8 L2,10 L7,11 L12,12 L13,15 L13,17 L15,17 L16,12 L18,11 L21,14 L22,18 L18,24 L14,24 L12,25 L10,23 L8,25 L4,21 L3,24 L1,24 L0,26 L-4,25 L-3,28 L1,28 L0,32 L-3,31 L-1,33 L5,35 L7,33 L4,28 L7,24 L7,26 L17,27 L15,30 L18,33 L19,31 L23,32 L24,33 L23,29 L20,30 L19,28 L23,25 L29,26 L31,29 L30,37 L32,40 L33,38 L36,37 L33,37 L31,36 L32,29 L32,26 L33,24 L37,26 L37,24 L33,22 L36,19 L40,21 L44,17 L46,17 L45,23 L47,24 L48,17 L54,22 L58,18 L60,18 L62,22 L64,22 L66,22 L67,20 L71,21 L72,26 L77,27 L76,24 L83,23 L83,21 L86,22 L88,24 L87,27 L86,28 L89,28 L90,26 L92,27 L90,23 L89,21 L91,19 L93,19 L96,18 L95,15 L99,16 L98,13 L96,11 L99,11 L100,9 L102,11 L103,8 L105,8 L105,6 L110,2 L115,4 L119,5 L121,1 L124,2 L121,9 L118,9 L120,11 L123,10 L124,10 L127,10 L129,7 L129,5 L126,4 L129,3 L132,6 L132,9 L134,5 L135,3 L137,0 L144,8 L144,10 L146,10 L153,19 L162,29 L169,37 L170,40 L172,40 L182,53 L187,62 L187,71 L182,79 L178,81 L177,84 L163,94 L151,103 L132,116 L117,127 L96,141 L85,149 L79,152 L69,153 L61,150 L57,148 L57,146 L53,144 L39,123 L30,110 L24,101 L14,87 L5,73 L-10,51 L-25,29 L-33,18 L-37,12 L-36,9 L-36,11 L-34,12 L-33,11 L-33,7 L-29,5 L-27,8 L-30,8 L-30,10 L-26,11 L-26,13 L-24,14 L-26,14 L-25,16 L-23,12 L-24,10 L-18,9 L-19,7 L-15,6 L-13,2 L-11,3 L-8,3 L-6,5 L-5,6 L-4,7 Z M11,18 Z M12,21 Z M53,23 Z M11,28 Z " transform="translate(1750,842)" style="fill: #88D3F3;"/><path d="M0,0 L50,0 L83,1 L105,1 L114,4 L120,11 L123,20 L125,48 L127,82 L127,111 L125,110 L124,106 L117,108 L94,115 L77,120 L61,125 L45,129 L38,131 L15,137 L-13,144 L-15,144 L-15,142 L-17,142 L-16,145 L-18,145 L-18,79 L-19,45 L-20,20 L-18,12 L-14,6 L-10,3 Z " transform="translate(2269,575)" style="fill: #8FD9F7;"/><path d="M0,0 L2,1 Z " transform="translate(146,486)" style="fill: #1B1C19;"/><path d="M0,0 Z " transform="translate(407,1075)" style="fill: #1B1C19;"/><path d="M0,0 Z " transform="translate(431,1074)" style="fill: #1B1C19;"/><path d="M0,0 Z " transform="translate(492,1069)" style="fill: #1B1C19;"/><path d="M0,0 Z " transform="translate(520,1067)" style="fill: #1B1C19;"/><path d="M0,0 Z " transform="translate(526,1066)" style="fill: #1B1C19;"/><path d="M0,0 Z " transform="translate(538,1064)" style="fill: #1B1C19;"/><path d="M0,0 Z " transform="translate(848,1061)" style="fill: #1B1C19;"/><path d="M0,0 Z " transform="translate(870,1057)" style="fill: #1B1C19;"/><path d="M0,0 Z " transform="translate(2117,1048)" style="fill: #6B6C69;"/><path d="M0,0 Z " transform="translate(3210,1045)" style="fill: #9E9F9B;"/><path d="M0,0 Z " transform="translate(2266,1045)" style="fill: #4D4E4B;"/><path d="M0,0 Z " transform="translate(1628,1045)" style="fill: #9E9F9B;"/><path d="M0,0 Z " transform="translate(911,1045)" style="fill: #1B1C19;"/><path d="M0,0 Z " transform="translate(3168,1044)" style="fill: #BFC0BC;"/><path d="M0,0 Z " transform="translate(3156,1044)" style="fill: #9E9F9B;"/><path d="M0,0 Z " transform="translate(1581,1044)" style="fill: #9E9F9B;"/><path d="M0,0 Z " transform="translate(597,1044)" style="fill: #1B1C19;"/><path d="M0,0 Z " transform="translate(1539,1043)" style="fill: #848581;"/><path d="M0,0 Z " transform="translate(1536,1043)" style="fill: #848581;"/><path d="M0,0 Z " transform="translate(604,1039)" style="fill: #1B1C19;"/><path d="M0,0 Z " transform="translate(704,1035)" style="fill: #1B1C19;"/><path d="M0,0 Z " transform="translate(2691,1031)" style="fill: #4D4E4B;"/><path d="M0,0 Z " transform="translate(2671,1030)" style="fill: #9E9F9B;"/><path d="M0,0 Z " transform="translate(2669,1030)" style="fill: #6B6C69;"/><path d="M0,0 Z " transform="translate(2808,1028)" style="fill: #848581;"/><path d="M0,0 Z " transform="translate(2886,1026)" style="fill: #4D4E4B;"/><path d="M0,0 Z " transform="translate(698,1026)" style="fill: #1B1C19;"/><path d="M0,0 Z " transform="translate(2885,1025)" style="fill: #6B6C69;"/><path d="M0,0 Z " transform="translate(294,1010)" style="fill: #1B1C19;"/><path d="M0,0 Z " transform="translate(293,1008)" style="fill: #1B1C19;"/><path d="M0,0 Z " transform="translate(686,997)" style="fill: #1B1C19;"/><path d="M0,0 Z " transform="translate(646,960)" style="fill: #1B1C19;"/><path d="M0,0 Z " transform="translate(664,931)" style="fill: #1B1C19;"/><path d="M0,0 Z " transform="translate(280,900)" style="fill: #1B1C19;"/><path d="M0,0 Z " transform="translate(657,886)" style="fill: #1B1C19;"/><path d="M0,0 Z " transform="translate(279,881)" style="fill: #1B1C19;"/><path d="M0,0 Z " transform="translate(659,874)" style="fill: #1B1C19;"/><path d="M0,0 Z " transform="translate(662,862)" style="fill: #1B1C19;"/><path d="M0,0 Z " transform="translate(278,861)" style="fill: #1B1C19;"/><path d="M0,0 Z " transform="translate(684,831)" style="fill: #1B1C19;"/><path d="M0,0 Z " transform="translate(714,812)" style="fill: #1B1C19;"/><path d="M0,0 Z " transform="translate(275,811)" style="fill: #1B1C19;"/><path d="M0,0 Z " transform="translate(275,792)" style="fill: #1B1C19;"/><path d="M0,0 Z " transform="translate(274,775)" style="fill: #1B1C19;"/><path d="M0,0 Z " transform="translate(688,770)" style="fill: #1B1C19;"/><path d="M0,0 Z " transform="translate(641,733)" style="fill: #1B1C19;"/><path d="M0,0 Z " transform="translate(3309,700)" style="fill: #6B6C69;"/><path d="M0,0 Z " transform="translate(663,694)" style="fill: #1B1C19;"/><path d="M0,0 Z " transform="translate(268,677)" style="fill: #1B1C19;"/><path d="M0,0 Z " transform="translate(3310,669)" style="fill: #848581;"/><path d="M0,0 Z " transform="translate(665,648)" style="fill: #1B1C19;"/><path d="M0,0 Z " transform="translate(638,641)" style="fill: #1B1C19;"/><path d="M0,0 Z " transform="translate(674,613)" style="fill: #1B1C19;"/><path d="M0,0 Z " transform="translate(680,599)" style="fill: #1B1C19;"/><path d="M0,0 Z " transform="translate(681,598)" style="fill: #1B1C19;"/><path d="M0,0 Z " transform="translate(687,587)" style="fill: #1B1C19;"/><path d="M0,0 Z " transform="translate(727,540)" style="fill: #1B1C19;"/><path d="M0,0 Z " transform="translate(748,522)" style="fill: #1B1C19;"/><path d="M0,0 Z " transform="translate(261,514)" style="fill: #1B1C19;"/><path d="M0,0 Z " transform="translate(634,507)" style="fill: #1B1C19;"/><path d="M0,0 Z " transform="translate(1893,502)" style="fill: #4D4E4B;"/><path d="M0,0 Z " transform="translate(138,485)" style="fill: #1B1C19;"/><path d="M0,0 Z " transform="translate(216,484)" style="fill: #1B1C19;"/><path d="M0,0 Z " transform="translate(209,484)" style="fill: #1B1C19;"/><path d="M0,0 Z " transform="translate(225,483)" style="fill: #1B1C19;"/><path d="M0,0 Z " transform="translate(847,481)" style="fill: #1B1C19;"/><path d="M0,0 Z " transform="translate(255,481)" style="fill: #1B1C19;"/><path d="M0,0 Z " transform="translate(252,481)" style="fill: #1B1C19;"/><path d="M0,0 Z " transform="translate(879,476)" style="fill: #1B1C19;"/><path d="M0,0 Z " transform="translate(1883,470)" style="fill: #4D4E4B;"/><path d="M0,0 Z " transform="translate(92,464)" style="fill: #1B1C19;"/><path d="M0,0 Z " transform="translate(89,461)" style="fill: #1B1C19;"/><path d="M0,0 Z " transform="translate(3333,460)" style="fill: #848581;"/><path d="M0,0 Z " transform="translate(756,450)" style="fill: #1B1C19;"/><path d="M0,0 Z " transform="translate(785,436)" style="fill: #1B1C19;"/><path d="M0,0 Z " transform="translate(69,436)" style="fill: #1B1C19;"/><path d="M0,0 Z " transform="translate(798,425)" style="fill: #1B1C19;"/><path d="M0,0 Z " transform="translate(3013,413)" style="fill: #4D4E4B;"/><path d="M0,0 Z " transform="translate(3015,408)" style="fill: #6B6C69;"/><path d="M0,0 Z " transform="translate(52,380)" style="fill: #1B1C19;"/><path d="M0,0 Z " transform="translate(1815,298)" style="fill: #4D4E4B;"/><path d="M0,0 Z " transform="translate(830,247)" style="fill: #1B1C19;"/><path d="M0,0 Z " transform="translate(48,223)" style="fill: #1B1C19;"/><path d="M0,0 Z " transform="translate(826,214)" style="fill: #1B1C19;"/><path d="M0,0 Z " transform="translate(2086,202)" style="fill: #4D4E4B;"/><path d="M0,0 Z " transform="translate(61,192)" style="fill: #1B1C19;"/><path d="M0,0 Z " transform="translate(783,128)" style="fill: #1B1C19;"/><path d="M0,0 Z " transform="translate(447,120)" style="fill: #1B1C19;"/><path d="M0,0 Z " transform="translate(495,117)" style="fill: #1B1C19;"/><path d="M0,0 Z " transform="translate(515,116)" style="fill: #1B1C19;"/><path d="M0,0 Z " transform="translate(650,108)" style="fill: #1B1C19;"/><path d="M0,0 Z " transform="translate(638,108)" style="fill: #1B1C19;"/><path d="M0,0 Z " transform="translate(664,107)" style="fill: #1B1C19;"/><path d="M0,0 Z " transform="translate(684,106)" style="fill: #1B1C19;"/><path d="M0,0 Z " transform="translate(676,106)" style="fill: #1B1C19;"/><path d="M0,0 Z " transform="translate(699,105)" style="fill: #1B1C19;"/><path d="M0,0 Z " transform="translate(713,104)" style="fill: #1B1C19;"/></svg>